<svg xmlns="http://www.w3.org/2000/svg" viewBox="0 0 32 32" fill="none">
  <rect width="32" height="32" rx="6" fill="#0066FF"/>
  <path d="M16 6C12.686 6 10 8.686 10 12C10 12.476 10.052 12.94 10.15 13.388C8.352 13.968 7 15.724 7 17.8C7 20.561 9.239 22.8 12 22.8H20C22.761 22.8 25 20.561 25 17.8C25 15.724 23.648 13.968 21.85 13.388C21.948 12.94 22 12.476 22 12C22 8.686 19.314 6 16 6Z" fill="white"/>
  <circle cx="12" cy="16" r="2" fill="#0066FF"/>
  <circle cx="16" cy="13" r="2.5" fill="#0066FF"/>
  <circle cx="20" cy="16" r="2" fill="#0066FF"/>
</svg>