<svg xmlns="http://www.w3.org/2000/svg" viewBox="0 0 28 28" fill="none">
  <path d="M14 2C9.582 2 6 5.582 6 10C6 10.65 6.071 11.282 6.206 11.893C3.89 12.685 2.2 14.885 2.2 17.5C2.2 20.814 4.886 23.5 8.2 23.5H19.8C23.114 23.5 25.8 20.814 25.8 17.5C25.8 14.885 24.11 12.685 21.794 11.893C21.929 11.282 22 10.65 22 10C22 5.582 18.418 2 14 2Z" fill="currentColor"/>
  <circle cx="9.5" cy="15.5" r="2.2" fill="white" opacity="0.9"/>
  <circle cx="14" cy="11.8" r="2.8" fill="white" opacity="0.9"/>
  <circle cx="18.5" cy="15.5" r="2.2" fill="white" opacity="0.9"/>
</svg>
