<svg xmlns="http://www.w3.org/2000/svg" viewBox="0 0 120 40" fill="none">
  <!-- Cloud Icon -->
  <g transform="translate(0, 8)">
    <path d="M16 4C12.686 4 10 6.686 10 10C10 10.476 10.052 10.94 10.15 11.388C8.352 11.968 7 13.724 7 15.8C7 18.561 9.239 20.8 12 20.8H20C22.761 20.8 25 18.561 25 15.8C25 13.724 23.648 11.968 21.85 11.388C21.948 10.94 22 10.476 22 10C22 6.686 19.314 4 16 4Z" fill="#0066FF"/>
    <circle cx="12" cy="14" r="2" fill="white"/>
    <circle cx="16" cy="11" r="2.5" fill="white"/>
    <circle cx="20" cy="14" r="2" fill="white"/>
  </g>
  <!-- Text: Capa -->
  <text x="30" y="28" font-family="Inter, -apple-system, BlinkMacSystemFont, sans-serif" font-size="20" font-weight="700" fill="#1A1A2E">Capa</text>
</svg>